<svg width="32" height="32" viewBox="0 0 32 32" fill="none" xmlns="http://www.w3.org/2000/svg">
<g clip-path="url(#clip0_6_82)">
<path d="M26.8421 5.04827C29.8421 8.04827 31.6992 11.9768 31.6992 16.2626C31.6992 24.9768 24.4135 32.1197 15.6278 32.1197C12.9849 32.1197 10.4135 31.4054 8.05636 30.1911L-0.300781 32.334L1.9135 24.1197C0.556362 21.7626 -0.229353 19.0483 -0.229353 16.1911C-0.229353 7.47684 6.9135 0.333984 15.6278 0.333984C19.9135 0.333984 23.9135 2.04827 26.8421 5.04827ZM15.6278 29.4054C22.9135 29.4054 28.9849 23.4768 28.9849 16.2626C28.9849 12.6911 27.4849 9.40541 24.9849 6.90541C22.4849 4.40541 19.1992 3.04827 15.6992 3.04827C8.4135 3.04827 2.48493 8.97684 2.48493 16.1911C2.48493 18.6911 3.19922 21.1197 4.48493 23.2626L4.84208 23.7626L3.48493 28.6197L8.48493 27.2626L8.9135 27.5483C10.9849 28.7626 13.2706 29.4054 15.6278 29.4054ZM22.9135 19.5483C23.2706 19.7626 23.5564 19.834 23.6278 20.0483C23.7706 20.1911 23.7706 20.9768 23.4135 21.9054C23.0564 22.834 21.4849 23.6911 20.7706 23.7626C19.4849 23.9768 18.4849 23.9054 15.9849 22.7626C11.9849 21.0483 9.4135 17.0483 9.19922 16.834C8.98493 16.5483 7.62779 14.6911 7.62779 12.6911C7.62779 10.7626 8.62779 9.83398 8.98493 9.40541C9.34208 8.97684 9.77065 8.90541 10.0564 8.90541C10.2706 8.90541 10.5564 8.90541 10.7706 8.90541C11.0564 8.90541 11.3421 8.83398 11.6992 9.6197C11.9849 10.4054 12.8421 12.334 12.9135 12.5483C12.9849 12.7626 13.0564 12.9768 12.9135 13.2626C12.1992 14.7626 11.3421 14.6911 11.7706 15.4054C13.3421 18.0483 14.8421 18.9768 17.1992 20.1197C17.5564 20.334 17.7706 20.2626 18.0564 20.0483C18.2706 19.7626 19.0564 18.834 19.2706 18.4768C19.5564 18.0483 19.8421 18.1197 20.1992 18.2626C20.5564 18.4054 22.4849 19.334 22.9135 19.5483Z" fill="white"/>
</g>
<defs>
<clipPath id="clip0_6_82">
<rect width="32" height="32" fill="white" transform="translate(0.000976562)"/>
</clipPath>
</defs>
</svg>
